HIERARCHY
ROOT mixamorig:Hips
{
	OFFSET -0.000008 104.274872 1.554316
	CHANNELS 6 Xposition Yposition Zposition Xrotation Yrotation Zrotation
	JOINT mixamorig:Spine
	{
		OFFSET -0.000005 10.181595 0.131519
		CHANNELS 6 Xposition Yposition Zposition Xrotation Yrotation Zrotation
		JOINT mixamorig:Spine1
		{
			OFFSET -0.000000 9.893959 -1.470707
			CHANNELS 6 Xposition Yposition Zposition Xrotation Yrotation Zrotation
			JOINT mixamorig:Spine2
			{
				OFFSET -0.000000 9.220757 -1.370641
				CHANNELS 6 Xposition Yposition Zposition Xrotation Yrotation Zrotation
				JOINT mixamorig:Neck
				{
					OFFSET 0.000001 16.740417 -2.049036
					CHANNELS 6 Xposition Yposition Zposition Xrotation Yrotation Zrotation
					JOINT mixamorig:Head
					{
						OFFSET 0.000000 9.617874 1.685006
						CHANNELS 6 Xposition Yposition Zposition Xrotation Yrotation Zrotation
						JOINT mixamorig:HeadTop_End
						{
							OFFSET 0.000002 22.037354 7.501101
							CHANNELS 6 Xposition Yposition Zposition Xrotation Yrotation Zrotation
							End Site
							{
								OFFSET 0.000168 2310.654297 -282.823242
							}
						}
					}
				}
				JOINT mixamorig:RightShoulder
				{
					OFFSET -4.569970 11.014908 -2.160885
					CHANNELS 6 Xposition Yposition Zposition Xrotation Yrotation Zrotation
					JOINT mixamorig:RightArm
					{
						OFFSET -10.592851 -0.524811 -2.232101
						CHANNELS 6 Xposition Yposition Zposition Xrotation Yrotation Zrotation
						JOINT mixamorig:RightForeArm
						{
							OFFSET -27.841511 0.000031 -0.000004
							CHANNELS 6 Xposition Yposition Zposition Xrotation Yrotation Zrotation
							JOINT mixamorig:RightHand
							{
								OFFSET -28.328831 -0.000015 0.000015
								CHANNELS 6 Xposition Yposition Zposition Xrotation Yrotation Zrotation
								JOINT mixamorig:RightHandThumb1
								{
									OFFSET -2.464806 -1.573990 2.681852
									CHANNELS 6 Xposition Yposition Zposition Xrotation Yrotation Zrotation
									JOINT mixamorig:RightHandThumb2
									{
										OFFSET -3.215179 -1.872803 1.924282
										CHANNELS 6 Xposition Yposition Zposition Xrotation Yrotation Zrotation
										JOINT mixamorig:RightHandThumb3
										{
											OFFSET -2.654831 -1.527969 1.512609
											CHANNELS 6 Xposition Yposition Zposition Xrotation Yrotation Zrotation
											JOINT mixamorig:RightHandThumb4
											{
												OFFSET -2.018814 -1.152008 1.108052
												CHANNELS 6 Xposition Yposition Zposition Xrotation Yrotation Zrotation
												End Site
												{
													OFFSET -188.809540 -114.533607 132.431396
												}
											}
										}
									}
								}
								JOINT mixamorig:RightHandIndex1
								{
									OFFSET -9.108284 -0.517868 2.259835
									CHANNELS 6 Xposition Yposition Zposition Xrotation Yrotation Zrotation
									JOINT mixamorig:RightHandIndex2
									{
										OFFSET -3.699989 0.000000 0.001215
										CHANNELS 6 Xposition Yposition Zposition Xrotation Yrotation Zrotation
										JOINT mixamorig:RightHandIndex3
										{
											OFFSET -2.850006 0.000031 -0.000522
											CHANNELS 6 Xposition Yposition Zposition Xrotation Yrotation Zrotation
											JOINT mixamorig:RightHandIndex4
											{
												OFFSET -2.772186 -0.000015 -0.000020
												CHANNELS 6 Xposition Yposition Zposition Xrotation Yrotation Zrotation
												End Site
												{
													OFFSET -277.218445 0.000000 -0.050231
												}
											}
										}
									}
								}
								JOINT mixamorig:RightHandMiddle1
								{
									OFFSET -9.532516 -0.000031 -0.000023
									CHANNELS 6 Xposition Yposition Zposition Xrotation Yrotation Zrotation
									JOINT mixamorig:RightHandMiddle2
									{
										OFFSET -3.700005 -0.000015 0.003713
										CHANNELS 6 Xposition Yposition Zposition Xrotation Yrotation Zrotation
										JOINT mixamorig:RightHandMiddle3
										{
											OFFSET -2.949974 0.000015 -0.002054
											CHANNELS 6 Xposition Yposition Zposition Xrotation Yrotation Zrotation
											JOINT mixamorig:RightHandMiddle4
											{
												OFFSET -2.946640 0.000000 -0.000156
												CHANNELS 6 Xposition Yposition Zposition Xrotation Yrotation Zrotation
												End Site
												{
													OFFSET -294.664337 0.000000 -0.113670
												}
											}
										}
									}
								}
								JOINT mixamorig:RightHandRing1
								{
									OFFSET -9.103600 -0.043076 -1.865134
									CHANNELS 6 Xposition Yposition Zposition Xrotation Yrotation Zrotation
									JOINT mixamorig:RightHandRing2
									{
										OFFSET -3.379288 0.000000 -0.001055
										CHANNELS 6 Xposition Yposition Zposition Xrotation Yrotation Zrotation
										JOINT mixamorig:RightHandRing3
										{
											OFFSET -2.889687 -0.000015 0.000379
											CHANNELS 6 Xposition Yposition Zposition Xrotation Yrotation Zrotation
											JOINT mixamorig:RightHandRing4
											{
												OFFSET -2.638809 -0.000015 0.000941
												CHANNELS 6 Xposition Yposition Zposition Xrotation Yrotation Zrotation
												End Site
												{
													OFFSET -263.880371 0.000000 0.516020
												}
											}
										}
									}
								}
								JOINT mixamorig:RightHandPinky1
								{
									OFFSET -8.076683 -0.486710 -3.806280
									CHANNELS 6 Xposition Yposition Zposition Xrotation Yrotation Zrotation
									JOINT mixamorig:RightHandPinky2
									{
										OFFSET -3.600014 -0.000015 -0.003747
										CHANNELS 6 Xposition Yposition Zposition Xrotation Yrotation Zrotation
										JOINT mixamorig:RightHandPinky3
										{
											OFFSET -2.099983 0.000000 -0.005739
											CHANNELS 6 Xposition Yposition Zposition Xrotation Yrotation Zrotation
											JOINT mixamorig:RightHandPinky4
											{
												OFFSET -2.115768 -0.000031 -0.003680
												CHANNELS 6 Xposition Yposition Zposition Xrotation Yrotation Zrotation
												End Site
												{
													OFFSET -211.577087 0.000000 -0.350686
												}
											}
										}
									}
								}
							}
						}
					}
				}
				JOINT mixamorig:LeftShoulder
				{
					OFFSET 4.570447 11.014725 -2.160855
					CHANNELS 6 Xposition Yposition Zposition Xrotation Yrotation Zrotation
					JOINT mixamorig:LeftArm
					{
						OFFSET 10.592371 -0.524597 -2.232119
						CHANNELS 6 Xposition Yposition Zposition Xrotation Yrotation Zrotation
						JOINT mixamorig:LeftForeArm
						{
							OFFSET 27.841532 -0.000031 0.000026
							CHANNELS 6 Xposition Yposition Zposition Xrotation Yrotation Zrotation
							JOINT mixamorig:LeftHand
							{
								OFFSET 28.328846 -0.000061 0.000022
								CHANNELS 6 Xposition Yposition Zposition Xrotation Yrotation Zrotation
								JOINT mixamorig:LeftHandThumb1
								{
									OFFSET 2.466141 -1.576172 2.681732
									CHANNELS 6 Xposition Yposition Zposition Xrotation Yrotation Zrotation
									JOINT mixamorig:LeftHandThumb2
									{
										OFFSET 3.217812 -1.872070 1.916482
										CHANNELS 6 Xposition Yposition Zposition Xrotation Yrotation Zrotation
										JOINT mixamorig:LeftHandThumb3
										{
											OFFSET 2.656029 -1.528778 1.514513
											CHANNELS 6 Xposition Yposition Zposition Xrotation Yrotation Zrotation
											JOINT mixamorig:LeftHandThumb4
											{
												OFFSET 2.020889 -1.154053 1.115139
												CHANNELS 6 Xposition Yposition Zposition Xrotation Yrotation Zrotation
												End Site
												{
													OFFSET 190.885437 -115.081749 130.048782
												}
											}
										}
									}
								}
								JOINT mixamorig:LeftHandIndex1
								{
									OFFSET 9.109314 -0.518021 2.259871
									CHANNELS 6 Xposition Yposition Zposition Xrotation Yrotation Zrotation
									JOINT mixamorig:LeftHandIndex2
									{
										OFFSET 3.699989 0.000000 -0.000322
										CHANNELS 6 Xposition Yposition Zposition Xrotation Yrotation Zrotation
										JOINT mixamorig:LeftHandIndex3
										{
											OFFSET 2.850006 0.000000 0.000352
											CHANNELS 6 Xposition Yposition Zposition Xrotation Yrotation Zrotation
											JOINT mixamorig:LeftHandIndex4
											{
												OFFSET 2.774864 -0.000031 -0.000027
												CHANNELS 6 Xposition Yposition Zposition Xrotation Yrotation Zrotation
												End Site
												{
													OFFSET 277.486267 0.000000 -0.009857
												}
											}
										}
									}
								}
								JOINT mixamorig:LeftHandMiddle1
								{
									OFFSET 9.533394 0.000061 0.000044
									CHANNELS 6 Xposition Yposition Zposition Xrotation Yrotation Zrotation
									JOINT mixamorig:LeftHandMiddle2
									{
										OFFSET 3.699989 -0.000015 -0.000231
										CHANNELS 6 Xposition Yposition Zposition Xrotation Yrotation Zrotation
										JOINT mixamorig:LeftHandMiddle3
										{
											OFFSET 2.949997 -0.000015 -0.000059
											CHANNELS 6 Xposition Yposition Zposition Xrotation Yrotation Zrotation
											JOINT mixamorig:LeftHandMiddle4
											{
												OFFSET 2.952896 0.000031 0.000063
												CHANNELS 6 Xposition Yposition Zposition Xrotation Yrotation Zrotation
												End Site
												{
													OFFSET 295.289337 0.000000 0.022810
												}
											}
										}
									}
								}
								JOINT mixamorig:LeftHandRing1
								{
									OFFSET 9.104523 -0.042999 -1.865074
									CHANNELS 6 Xposition Yposition Zposition Xrotation Yrotation Zrotation
									JOINT mixamorig:LeftHandRing2
									{
										OFFSET 3.150009 -0.000031 0.000043
										CHANNELS 6 Xposition Yposition Zposition Xrotation Yrotation Zrotation
										JOINT mixamorig:LeftHandRing3
										{
											OFFSET 2.949982 -0.000015 0.000040
											CHANNELS 6 Xposition Yposition Zposition Xrotation Yrotation Zrotation
											JOINT mixamorig:LeftHandRing4
											{
												OFFSET 2.644348 0.000000 0.000057
												CHANNELS 6 Xposition Yposition Zposition Xrotation Yrotation Zrotation
												End Site
												{
													OFFSET 264.434631 0.000000 0.012105
												}
											}
										}
									}
								}
								JOINT mixamorig:LeftHandPinky1
								{
									OFFSET 8.077789 -0.486847 -3.806259
									CHANNELS 6 Xposition Yposition Zposition Xrotation Yrotation Zrotation
									JOINT mixamorig:LeftHandPinky2
									{
										OFFSET 3.599953 0.000031 0.014727
										CHANNELS 6 Xposition Yposition Zposition Xrotation Yrotation Zrotation
										JOINT mixamorig:LeftHandPinky3
										{
											OFFSET 2.100021 0.000015 0.007705
											CHANNELS 6 Xposition Yposition Zposition Xrotation Yrotation Zrotation
											JOINT mixamorig:LeftHandPinky4
											{
												OFFSET 2.125504 0.000031 0.007517
												CHANNELS 6 Xposition Yposition Zposition Xrotation Yrotation Zrotation
												End Site
												{
													OFFSET 212.550781 0.000000 0.625752
												}
											}
										}
									}
								}
							}
						}
					}
				}
			}
		}
	}
	JOINT mixamorig:RightUpLeg
	{
		OFFSET -8.207787 -6.751648 -1.599560
		CHANNELS 6 Xposition Yposition Zposition Xrotation Yrotation Zrotation
		JOINT mixamorig:RightLeg
		{
			OFFSET -0.000002 -44.370117 0.345942
			CHANNELS 6 Xposition Yposition Zposition Xrotation Yrotation Zrotation
			JOINT mixamorig:RightFoot
			{
				OFFSET 0.000003 -44.423679 -3.043532
				CHANNELS 6 Xposition Yposition Zposition Xrotation Yrotation Zrotation
				JOINT mixamorig:RightToeBase
				{
					OFFSET -0.000002 -8.728671 10.710558
					CHANNELS 6 Xposition Yposition Zposition Xrotation Yrotation Zrotation
					JOINT mixamorig:RightToe_End
					{
						OFFSET -0.000001 -0.000679 9.278119
						CHANNELS 6 Xposition Yposition Zposition Xrotation Yrotation Zrotation
						End Site
						{
							OFFSET 0.000000 -0.067690 927.812134
						}
					}
				}
			}
		}
	}
	JOINT mixamorig:LeftUpLeg
	{
		OFFSET 8.207793 -6.751686 -1.599556
		CHANNELS 6 Xposition Yposition Zposition Xrotation Yrotation Zrotation
		JOINT mixamorig:LeftLeg
		{
			OFFSET -0.000004 -44.370014 0.346954
			CHANNELS 6 Xposition Yposition Zposition Xrotation Yrotation Zrotation
			JOINT mixamorig:LeftFoot
			{
				OFFSET -0.000001 -44.423672 -3.044401
				CHANNELS 6 Xposition Yposition Zposition Xrotation Yrotation Zrotation
				JOINT mixamorig:LeftToeBase
				{
					OFFSET -0.000002 -8.728669 10.710558
					CHANNELS 6 Xposition Yposition Zposition Xrotation Yrotation Zrotation
					JOINT mixamorig:LeftToe_End
					{
						OFFSET -0.000003 -0.000679 9.278133
						CHANNELS 6 Xposition Yposition Zposition Xrotation Yrotation Zrotation
						End Site
						{
							OFFSET 0.000000 -0.068021 927.813477
						}
					}
				}
			}
		}
	}
}
MOTION
Frames: 3
Frame Time: 0.033333
0.000006 104.270477 1.554256 0.000010 0.000003 -0.000113 -0.000005 10.181587 0.131522 0.000001 -0.000003 0.000084 -0.000000 9.893967 -1.470711 0.000001 0.000000 -0.000000 -0.000000 9.220802 -1.370642 0.000000 -0.000000 -0.000000 0.000001 16.740433 -2.049030 0.000000 -0.000000 -0.000000 0.000000 9.617859 1.685014 0.000000 0.000000 0.000000 0.000002 22.037384 7.501101 0.000000 -0.000000 0.000000 -4.569968 11.014880 -2.160881 0.000008 0.000001 -0.000038 -10.592876 -0.524764 -2.231909 77.077175 28.601699 -22.955426 -27.841518 0.000012 0.000534 -56.031310 109.070089 73.511058 -28.328848 0.000020 0.000022 -0.000318 -0.000042 0.000005 -2.464410 -1.573867 2.682356 -38.604926 -156.889677 10.642129 -3.215259 -1.872530 1.924631 154.040819 34.296835 20.977131 -2.654932 -1.527913 1.513099 150.232470 24.851174 -48.349106 -2.018820 -1.152016 1.108065 -0.000002 -0.000005 0.000006 -9.108383 -0.517561 2.260112 94.632886 18.637945 -20.229834 -3.700083 0.000293 0.001490 89.133265 15.841345 -15.582602 -2.850083 0.000359 -0.000316 87.775225 11.462733 -11.027906 -2.772160 -0.000001 -0.000018 -0.000000 -0.000001 0.000002 -9.532578 0.000279 0.000226 92.780941 14.351414 -15.204211 -3.700054 0.000330 0.003950 90.162773 10.589660 -10.526337 -2.950036 0.000334 -0.001841 90.256538 10.153568 -10.191885 -2.946630 0.000001 -0.000155 -0.000000 -0.000001 -0.000001 -9.103678 -0.042743 -1.864864 93.530268 14.400807 -15.259920 -3.379305 0.000332 -0.000814 92.358665 6.968521 -7.278140 -2.889723 0.000351 0.000624 93.964415 4.873749 -5.270126 -2.638808 -0.000001 0.000939 0.000001 -0.000001 -0.000003 -8.076744 -0.486392 -3.806010 91.478923 14.780142 -15.011214 -3.600019 0.000302 -0.003522 91.972930 5.422947 -5.260249 -2.099992 0.000333 -0.005502 91.597468 2.534521 -2.390912 -2.115766 -0.000056 -0.003680 0.000002 0.000002 -0.000001 4.570446 11.014691 -2.160851 -0.000018 0.000010 -0.000021 10.592383 -0.524485 -2.232340 75.018126 -6.019696 4.622432 27.841827 0.000072 -0.000213 96.896697 -68.939374 75.518683 28.328846 -0.000029 0.000019 0.000022 -0.000088 0.000000 2.466193 -1.576156 2.681877 -8.138964 157.497032 -68.174044 3.217813 -1.871744 1.916376 163.098183 -28.710188 13.542994 2.656090 -1.528667 1.514475 139.646155 -27.677914 51.908888 2.020888 -1.154085 1.115151 -0.000004 0.000004 0.000001 9.109380 -0.517873 2.259737 80.632077 -16.749342 14.230198 3.700040 0.000146 -0.000461 79.218508 -13.894700 11.530479 2.850062 0.000173 0.000211 76.495790 -11.804044 9.316289 2.774885 -0.000033 -0.000027 -0.000000 -0.000003 0.000001 9.533474 0.000192 -0.000084 82.013319 -15.401069 13.403037 3.700046 0.000160 -0.000394 83.732751 -12.616446 11.313301 2.950051 0.000157 -0.000195 83.512832 -15.796590 14.123014 2.952880 -0.000017 0.000059 0.000001 -0.000001 0.000000 9.104585 -0.042860 -1.865221 79.306884 -14.017294 11.637887 3.150057 0.000192 -0.000082 85.981536 -12.177605 11.359424 2.950050 0.000171 -0.000079 87.817532 -13.811660 13.301775 2.644339 0.000029 0.000061 0.000002 0.000002 0.000001 8.077840 -0.486750 -3.806415 68.448420 -15.437669 10.939580 3.599998 0.000160 0.014563 70.668238 -13.600813 10.033062 2.100044 0.000145 0.007556 74.850254 -13.040137 10.374101 2.125505 -0.000000 0.007510 -0.000002 -0.000001 -0.000000 -8.207786 -6.751667 -1.599560 -0.077001 -0.000003 0.000080 -0.000002 -44.370110 0.345938 0.153719 -0.000000 -0.000000 0.000000 -44.423679 -3.043532 -0.076700 0.000000 -0.000002 -0.000006 -8.728667 10.710559 -0.000009 -0.000000 -0.000000 -0.000001 -0.000679 9.278123 0.000000 -0.000000 -0.000000 8.207792 -6.751710 -1.599556 -0.074518 -0.000003 0.000081 -0.000002 -44.370014 0.346960 0.148822 0.000002 0.000000 -0.000001 -44.423664 -3.044403 -0.074314 0.000000 -0.000002 -0.000004 -8.728671 10.710558 0.000007 -0.000000 -0.000000 0.000000 -0.000680 9.278137 -0.000000 0.000000 -0.000001 
0.000006 104.270477 1.554256 0.000010 0.000003 -0.000113 -0.000005 10.181587 0.131522 0.000001 -0.000003 0.000084 -0.000000 9.893967 -1.470711 0.000001 0.000000 -0.000000 -0.000000 9.220802 -1.370642 0.000000 -0.000000 -0.000000 0.000001 16.740433 -2.049030 0.000000 -0.000000 -0.000000 0.000000 9.617859 1.685014 0.000000 0.000000 0.000000 0.000002 22.037384 7.501101 0.000000 -0.000000 0.000000 -4.569968 11.014880 -2.160881 0.000008 0.000001 -0.000038 -10.592873 -0.524774 -2.231906 77.298350 29.969709 -24.163840 -27.841522 0.000014 0.000548 -54.631555 107.818525 70.636710 -28.328848 0.000005 0.000023 -0.000323 -0.000043 0.000005 -2.464397 -1.573799 2.682341 -45.039750 -158.531874 -3.551327 -3.215255 -1.872549 1.924655 153.889435 33.417288 15.793984 -2.654952 -1.527896 1.513094 148.542175 26.103072 -41.793234 -2.018826 -1.151981 1.108074 -0.000005 -0.000001 0.000002 -9.108366 -0.517563 2.260100 93.237813 17.645343 -18.704116 -3.700047 0.000314 0.001488 89.445719 14.285989 -14.126280 -2.850084 0.000367 -0.000307 88.305754 11.016795 -10.696742 -2.772166 0.000002 -0.000021 0.000003 -0.000000 -0.000002 -9.532568 0.000274 0.000221 90.287560 15.484546 -15.703790 -3.700070 0.000332 0.003943 90.126586 10.833833 -10.764166 -2.950075 0.000341 -0.001811 93.218080 10.442031 -11.034598 -2.946632 0.000014 -0.000154 -0.000003 0.000001 -0.000000 -9.103684 -0.042756 -1.864884 90.628769 16.166496 -16.297784 -3.379312 0.000338 -0.000817 91.228945 7.288969 -7.463758 -2.889753 0.000357 0.000656 98.467702 5.174048 -6.051485 -2.638814 -0.000014 0.000941 -0.000001 0.000001 0.000002 -8.076735 -0.486370 -3.806029 88.580730 16.159292 -15.623165 -3.600022 0.000276 -0.003535 91.293149 5.615312 -5.394032 -2.099977 0.000330 -0.005493 95.331081 2.640533 -2.668142 -2.115773 -0.000042 -0.003678 0.000002 -0.000001 -0.000007 4.570446 11.014691 -2.160851 -0.000018 0.000010 -0.000021 10.592379 -0.524487 -2.232329 74.962064 -3.895781 2.987858 27.841818 0.000092 -0.000205 97.035835 -70.123223 76.881969 28.328871 -0.000029 0.000018 0.000020 -0.000089 -0.000000 2.466264 -1.576037 2.681816 9.401042 173.227135 -108.720349 3.217865 -1.871805 1.916401 168.958349 -22.849780 33.423777 2.656115 -1.528681 1.514504 142.056337 -26.224050 62.485548 2.020888 -1.154073 1.115144 -0.000004 0.000004 0.000001 9.109382 -0.517882 2.259748 81.382592 -20.589892 17.743049 3.700039 0.000141 -0.000482 79.899437 -12.166493 10.216254 2.850049 0.000172 0.000188 79.066393 -8.939649 7.381721 2.774888 -0.000046 -0.000024 0.000001 -0.000000 -0.000001 9.533463 0.000186 -0.000101 81.688523 -18.755754 16.243433 3.700014 0.000198 -0.000381 85.115270 -9.298853 8.538622 2.950037 0.000184 -0.000208 86.525075 -9.491662 8.937793 2.952880 -0.000031 0.000065 0.000001 -0.000003 0.000000 9.104588 -0.042867 -1.865228 81.011603 -18.097022 15.495891 3.150023 0.000200 -0.000100 86.198790 -10.871641 10.178765 2.950002 0.000188 -0.000088 87.510194 -9.252863 8.862503 2.644323 0.000015 0.000055 -0.000000 -0.000002 0.000001 8.077849 -0.486748 -3.806420 71.784250 -19.522569 14.640287 3.600010 0.000171 0.014571 73.225919 -15.839204 12.197307 2.100049 0.000169 0.007556 75.543149 -11.897027 9.608463 2.125491 -0.000017 0.007519 -0.000002 -0.000000 0.000002 -8.207786 -6.751667 -1.599560 -0.077001 -0.000003 0.000080 -0.000002 -44.370110 0.345938 0.153719 -0.000000 -0.000000 0.000000 -44.423679 -3.043532 -0.076700 0.000000 -0.000002 -0.000006 -8.728667 10.710559 -0.000009 -0.000000 -0.000000 -0.000001 -0.000679 9.278123 0.000000 -0.000000 -0.000000 8.207792 -6.751710 -1.599556 -0.074518 -0.000003 0.000081 -0.000002 -44.370014 0.346960 0.148822 0.000002 0.000000 -0.000001 -44.423664 -3.044403 -0.074314 0.000000 -0.000002 -0.000004 -8.728671 10.710558 0.000007 -0.000000 -0.000000 0.000000 -0.000680 9.278137 -0.000000 0.000000 -0.000001 
0.000006 104.270477 1.554256 0.000010 0.000003 -0.000113 -0.000005 10.181587 0.131522 0.000001 -0.000003 0.000084 -0.000000 9.893967 -1.470711 0.000001 0.000000 -0.000000 -0.000000 9.220802 -1.370642 0.000000 -0.000000 -0.000000 0.000001 16.740433 -2.049030 0.000000 -0.000000 -0.000000 0.000000 9.617859 1.685014 0.000000 0.000000 0.000000 0.000002 22.037384 7.501101 0.000000 -0.000000 0.000000 -4.569968 11.014880 -2.160881 0.000008 0.000001 -0.000038 -10.592869 -0.524782 -2.231880 77.061227 35.227940 -28.376200 -27.841520 0.000016 0.000538 -53.128456 105.563927 66.711509 -28.328810 0.000022 0.000036 -0.000319 -0.000047 0.000009 -2.464371 -1.573828 2.682328 -45.061104 -157.973861 -3.698158 -3.215259 -1.872552 1.924658 154.087743 33.195522 14.157378 -2.654944 -1.527919 1.513093 148.205256 26.230324 -41.365436 -2.018835 -1.152031 1.108065 -0.000001 -0.000006 0.000002 -9.108364 -0.517556 2.260111 92.850664 17.406519 -18.329673 -3.700068 0.000303 0.001467 88.971711 13.749738 -13.484193 -2.850082 0.000371 -0.000293 87.893955 10.475067 -10.098045 -2.772169 -0.000017 -0.000020 -0.000001 -0.000001 -0.000001 -9.532571 0.000276 0.000229 90.376858 15.123016 -15.363640 -3.700055 0.000318 0.003953 90.194267 10.395193 -10.337198 -2.950051 0.000340 -0.001807 93.300623 10.214244 -10.809392 -2.946614 -0.000015 -0.000155 0.000002 -0.000003 -0.000001 -9.103668 -0.042741 -1.864881 90.528154 15.748149 -15.847670 -3.379331 0.000334 -0.000819 91.575720 7.089377 -7.303795 -2.889757 0.000364 0.000637 98.971920 5.202462 -6.138745 -2.638814 0.000000 0.000937 0.000002 0.000002 0.000002 -8.076735 -0.486396 -3.806025 88.154765 15.660415 -15.025856 -3.600035 0.000286 -0.003510 91.176113 5.516652 -5.282833 -2.100000 0.000328 -0.005481 95.808867 2.723668 -2.782274 -2.115771 -0.000033 -0.003681 -0.000002 -0.000001 -0.000008 4.570446 11.014691 -2.160851 -0.000018 0.000010 -0.000021 10.592396 -0.524474 -2.232364 75.098893 -11.103745 8.546477 27.841824 0.000091 -0.000227 97.756898 -71.734820 79.261627 28.328838 -0.000028 0.000025 0.000020 -0.000089 0.000000 2.466256 -1.575982 2.681812 14.059311 176.728877 -117.390120 3.217876 -1.871842 1.916440 167.848976 -19.281535 45.678799 2.656094 -1.528670 1.514489 142.125691 -26.316750 60.671013 2.020887 -1.154085 1.115151 0.000000 0.000004 0.000004 9.109393 -0.517885 2.259751 83.566176 -21.989857 19.686250 3.700039 0.000162 -0.000462 81.485550 -13.281583 11.469121 2.850044 0.000182 0.000198 80.624093 -9.714406 8.246379 2.774878 -0.000045 -0.000021 -0.000000 0.000001 0.000001 9.533482 0.000180 -0.000083 82.382634 -19.800076 17.360563 3.700042 0.000177 -0.000394 86.040999 -9.780156 9.127130 2.950036 0.000165 -0.000212 87.091032 -9.639046 9.166467 2.952866 -0.000031 0.000065 -0.000001 0.000002 -0.000000 9.104599 -0.042869 -1.865224 81.342389 -19.343850 16.664425 3.150052 0.000190 -0.000084 87.519169 -12.216599 11.704189 2.950012 0.000183 -0.000102 88.350580 -9.996511 9.715848 2.644324 0.000015 0.000061 0.000000 -0.000002 0.000001 8.077853 -0.486748 -3.806399 72.047137 -20.336224 15.313981 3.600001 0.000139 0.014571 72.021913 -16.998181 12.789773 2.100059 0.000163 0.007552 74.084453 -12.567919 9.871742 2.125514 0.000001 0.007516 0.000002 -0.000003 -0.000001 -8.207786 -6.751667 -1.599560 -0.077001 -0.000003 0.000080 -0.000002 -44.370110 0.345938 0.153719 -0.000000 -0.000000 0.000000 -44.423679 -3.043532 -0.076700 0.000000 -0.000002 -0.000006 -8.728667 10.710559 -0.000009 -0.000000 -0.000000 -0.000001 -0.000679 9.278123 0.000000 -0.000000 -0.000000 8.207792 -6.751710 -1.599556 -0.074518 -0.000003 0.000081 -0.000002 -44.370014 0.346960 0.148822 0.000002 0.000000 -0.000001 -44.423664 -3.044403 -0.074314 0.000000 -0.000002 -0.000004 -8.728671 10.710558 0.000007 -0.000000 -0.000000 0.000000 -0.000680 9.278137 -0.000000 0.000000 -0.000001 
